<?xml version="1.0" encoding="iso-8859-1"?>
<!-- Generator: Adobe Illustrator 16.0.3, SVG Export Plug-In . SVG Version: 6.00 Build 0)  -->
<!DOCTYPE svg PUBLIC "-//W3C//DTD SVG 1.1 Basic//EN" "http://www.w3.org/Graphics/SVG/1.1/DTD/svg11-basic.dtd">
<svg version="1.1" baseProfile="basic" xmlns="http://www.w3.org/2000/svg" xmlns:xlink="http://www.w3.org/1999/xlink" x="0px"
	 y="0px" width="512px" height="512px" viewBox="0 0 512 512" xml:space="preserve">
<g id="Layer_159" display="none">
	<rect x="-512" y="-512" display="inline" fill="#FFFFFF" width="512" height="512"/>
	<rect y="-512" display="inline" fill="#FFFFFF" width="512" height="512"/>
	<rect display="inline" fill="#FFFFFF" width="512" height="512"/>
	<rect x="-512" display="inline" fill="#FFFFFF" width="512" height="512"/>
</g>
<g id="female">
	<g id="avatar15_1_">
		<g id="baclk">
			<circle fill="#434A54" cx="256" cy="256" r="200"/>
		</g>
		<g id="hair_back_8_">
			<path fill="#F6BB42" d="M238.5,125c0,0-15.898-36.391,17.5-39c32-2.5,23,35.5,48,47s50,69.838,41.5,121.919
				s-15.5,58.327,3.5,75.204S337.828,397,324.664,405.5S280,375.5,280.5,374s29.611-28.5,16.306-59S266.75,276.5,291,245.5
				S238.5,125,238.5,125z"/>
			<path fill="#FFCE54" d="M300.173,334.52c-1.561,21.693-19.283,38.313-19.673,39.48c-0.083,0.248,0.714,1.512,2.153,3.403
				C288.055,371.134,301.619,354.445,300.173,334.52z"/>
			<path fill="#FFCE54" d="M337.014,310.394c-0.755,11.02,2.082,16.932,11.986,25.729c3.675,3.264,5.504,7.771,5.979,12.973
				c0.632-7.722-0.951-14.507-5.979-18.973C341.054,323.064,337.657,317.864,337.014,310.394z"/>
			<path fill="#FFCE54" d="M295.608,232.807c-0.399,4.845-1.839,9.153-4.608,12.693c-10.191,13.027-13.14,21.993-12.147,30.274
				c0.799-6.724,4.353-14.31,12.147-24.274C294.866,246.558,296.156,240.123,295.608,232.807z"/>
			<path fill="#FFCE54" d="M256,92c32-2.5,23,35.5,48,47c21.103,9.707,42.205,52.787,43.159,97.308
				C348.095,189.722,326.05,143.143,304,133c-25-11.5-16-49.5-48-47c-18.964,1.481-22.032,13.854-21.144,24.271
				C235.688,101.585,240.604,93.203,256,92z"/>
			<path fill="#3DB093" d="M269,115c0,6.627-5.373,12-12,12h-2c-6.627,0-12-5.373-12-12v-2c0-6.627,5.373-12,12-12h2
				c6.627,0,12,5.373,12,12V115z"/>
			<path fill="#FFCE54" d="M309,197c0,0,10.333,15.667,20.333,16.667s6.333,21.397,5,28.865s-5.333,22.135,7,34.468
				c0,0-13.333-19.999,0-48.333S309,197,309,197z"/>
			<path fill="#FFCE54" d="M293,265.5c0,0.089,0.072,0.624,0.223,1.517c1.262,7.48-0.223,28.62,17.071,41.689
				c15.507,11.719,2.707,30.96,5.373,51.627c0,0,8.997-22.333,14.666-32.333c6.352-11.205,6.11-22.667-8.394-33.667
				c-11.451-8.685-20.691-19.637-15.939-30.666"/>
			<path fill="#FFCE54" d="M310.506,233.644c-0.053,0.064-0.081,0.303-0.081,0.695c-0.007,5.892,6.243,46.536,31.242,54.661
				c26.666,8.667,22.666,26.667,19.666,33.667c0,0,21.001-22.001-15.666-38.334S329,233.644,329,233.644"/>
		</g>
		<g id="clothes_30_">
			<path id="_x36__67_" fill="#F9E0A8" d="M372.668,368.789c-7.353-6.355-19.364-14.563-30.666-15.666
				c-7.258-0.709-86.002-23-86.002-23s-78.744,22.291-86.002,23c-11.302,1.104-23.313,9.311-30.666,15.666
				c-13.235,11.439-10.854,25.453-14.641,38.188c35.133,30.605,81.055,49.145,131.309,49.145s96.176-18.539,131.309-49.145
				C383.522,394.242,385.903,380.229,372.668,368.789z"/>
			<path fill="#D9C392" d="M254,442c0,0-0.028-0.681-0.077-1.871c-0.063-1.182-0.154-2.85-0.358-4.817
				c-0.188-1.966-0.476-4.229-0.925-6.599c-0.22-1.186-0.494-2.395-0.802-3.609c-0.325-1.209-0.662-2.434-1.093-3.621
				c-0.393-1.203-0.886-2.363-1.37-3.507c-0.277-0.553-0.521-1.121-0.795-1.665c-0.292-0.532-0.549-1.08-0.849-1.592
				c-0.582-1.034-1.193-2.012-1.807-2.926c-0.316-0.453-0.624-0.893-0.923-1.319c-0.318-0.415-0.627-0.816-0.923-1.201
				c-0.281-0.405-0.612-0.732-0.889-1.089c-0.288-0.345-0.542-0.697-0.824-0.983c-0.558-0.576-1.001-1.149-1.418-1.562
				c-0.823-0.841-1.282-1.371-1.282-1.371s0.643,0.232,1.749,0.727c0.555,0.244,1.191,0.605,1.927,1.026
				c0.725,0.433,1.528,0.96,2.362,1.598c0.407,0.333,0.831,0.681,1.27,1.04c0.419,0.382,0.835,0.797,1.274,1.218
				c0.842,0.87,1.686,1.843,2.465,2.921c0.783,1.075,1.507,2.25,2.156,3.49c0.633,1.246,1.195,2.554,1.657,3.893
				c0.913,2.684,1.456,5.473,1.622,8.09c0.106,1.308,0.09,2.574,0.05,3.768c-0.063,1.193-0.167,2.315-0.327,3.342
				c-0.312,2.054-0.775,3.721-1.165,4.861C254.319,441.383,254,442,254,442z"/>
			<path fill="#D9C392" d="M258,442c0,0-0.319-0.617-0.706-1.76c-0.39-1.141-0.854-2.808-1.165-4.861
				c-0.16-1.026-0.264-2.148-0.327-3.342c-0.04-1.193-0.057-2.46,0.05-3.768c0.166-2.617,0.709-5.406,1.622-8.09
				c0.462-1.339,1.024-2.646,1.657-3.893c0.649-1.24,1.373-2.415,2.156-3.49c0.779-1.078,1.623-2.051,2.465-2.921
				c0.439-0.421,0.855-0.836,1.274-1.218c0.438-0.359,0.862-0.707,1.27-1.04c0.834-0.638,1.638-1.165,2.362-1.598
				c0.735-0.421,1.372-0.782,1.927-1.026c1.106-0.494,1.749-0.727,1.749-0.727s-0.459,0.53-1.282,1.371
				c-0.417,0.412-0.86,0.985-1.418,1.562c-0.282,0.286-0.536,0.639-0.824,0.983c-0.276,0.356-0.607,0.684-0.889,1.089
				c-0.296,0.385-0.604,0.786-0.923,1.201c-0.299,0.427-0.606,0.866-0.923,1.319c-0.613,0.914-1.225,1.892-1.807,2.926
				c-0.3,0.512-0.557,1.06-0.849,1.592c-0.274,0.544-0.518,1.112-0.795,1.665c-0.484,1.144-0.978,2.304-1.37,3.507
				c-0.431,1.188-0.768,2.412-1.093,3.621c-0.308,1.215-0.582,2.424-0.802,3.609c-0.449,2.369-0.737,4.633-0.925,6.599
				c-0.204,1.968-0.295,3.636-0.358,4.817C258.028,441.319,258,442,258,442z"/>
			<path id="_x35__62_" fill="#F9E0A8" d="M256,256l-42.25-5.5l16.307,88.734c0,0,3.666,30.766,25.943,30.766
				s25.943-30.766,25.943-30.766L298.25,250.5L256,256z"/>
			<path id="_x34__70_" fill="#D9C392" d="M290,265.5l-69.525,21.592l7.086,38.556c10.66,13.146,26.918,25.187,50.957,26.265
				c2.709-6.691,3.426-12.678,3.426-12.678l12.127-65.99C291.686,268.447,290,265.5,290,265.5z"/>
			<path fill="#379E84" d="M256,456.121c37.587,0,72.75-10.373,102.788-28.408l-0.25-0.318
				c-13.845-17.648-15.468-60.572-15.624-74.148c-0.304-0.039-0.609-0.094-0.912-0.123c-1.017-0.1-3.438-0.623-6.849-1.449
				l0.183,1.194l0.139,0.878c0.913,5.746,3.053,19.205-5.914,43.331c-12.367,33.277-61.322,34.964-71.01,34.964
				c-1.518,0-2.381-0.036-2.418-0.038l-0.134-0.006l-0.131,0.006c-0.037,0.002-0.902,0.038-2.419,0.038
				c-9.688,0-58.642-1.685-71.01-34.964c-8.967-24.126-6.827-37.585-5.914-43.331l0.139-0.878l0.183-1.194
				c-3.41,0.826-5.832,1.35-6.849,1.449c-0.303,0.029-0.608,0.084-0.912,0.123c-0.156,13.576-1.779,56.5-15.624,74.148l-0.25,0.318
				C183.25,445.748,218.413,456.121,256,456.121z"/>
			<path fill="#3DB093" d="M339.908,352.762c-0.477-0.099-1.014-0.215-1.606-0.348c0.872,5.699,3.769,19.614-5.929,45.708
				C317.646,437.75,256,435,256,435s-61.646,2.75-76.373-36.878c-9.697-26.094-6.801-40.009-5.929-45.708
				c-0.593,0.133-1.13,0.249-1.606,0.348c-0.137,14.463-1.783,58.019-16.27,76.484c29.458,17.085,63.673,26.875,100.178,26.875
				s70.72-9.79,100.178-26.875C341.691,410.78,340.045,367.225,339.908,352.762z"/>
			<polygon fill="#FFFFFF" points="245,441.617 251.128,451.667 279.072,440.146 251.863,447.01 			"/>
		</g>
		<g id="face_98_">
			<path id="face_80_" fill="#FFE9BA" d="M256,154h-63c0,0,4.785,94.465,11,114c7,22.001,14.237,27.287,30.226,41
				C247.634,320.5,256,319,256,319s8.366,1.5,21.774-10C293.763,295.287,302,290.001,309,268c6.215-19.535,10-114,10-114H256z"/>
			<path id="ear_128_" fill="#F9E0A8" d="M197.75,214.5c0,0-22.743-10.911-17.273,16.638c5.468,27.55,22.018,23.583,22.018,23.583
				L197.75,214.5z"/>
			<path id="ear_125_" fill="#F9E0A8" d="M315.25,214.5c0,0,22.743-10.911,17.273,16.638c-5.468,27.55-22.018,23.583-22.018,23.583
				L315.25,214.5z"/>
		</g>
		<g id="hair_front_8_">
			<path fill="#FFCE54" d="M256.5,111.978c-7.415-0.277-96.867-1.511-58.75,102.772c0,0-3.25-23.125,10.25-29.125l-2.5-18.063
				c0,0,9.854-20.207,50.5-8.834V159c0.171-0.049,0.33-0.088,0.5-0.136c0.17,0.048,0.5-0.136,0.5-0.136
				c40.646-11.373,50.5,8.834,50.5,8.834l-2.5,18.063c13.5,6,10.25,29.125,10.25,29.125
				C353.367,110.467,263.915,111.7,256.5,111.978z"/>
			<path fill="#FFD56B" d="M232.871,114.458c-6.929,1.642-14.462,4.331-21.334,8.719c-2.509,15.544,4.62,26.28,12.1,33.026
				c2.387-0.49,5.062-0.814,8.049-0.908C225.123,139.757,229.919,122.43,232.871,114.458z"/>
			<path fill="#F6BB42" d="M193.158,144.29c-2.401,5.416-4.038,11.728-4.604,19.097c5.013,2.375,11.438,5.273,17.411,7.539
				l-0.466-3.363c0,0,1.088-2.209,3.995-4.753C202.931,158.45,196.407,152.479,193.158,144.29z"/>
			<path fill="#FFD56B" d="M188.995,180.072c0.481,4.136,1.247,8.53,2.308,13.182l9.293-0.328c1.152-2.242,2.706-4.245,4.779-5.766
				L188.995,180.072z"/>
			<path fill="#F6BB42" d="M273.643,113.338c-8.283-1.427-15.002-1.441-17.533-1.379L256,112l-0.109-0.041
				c-2.531-0.063-9.25-0.048-17.533,1.379c-1.404,8.357-0.26,23.936,17.36,45.316c0.088,0.025,0.172,0.044,0.26,0.068
				c0.007,0.191,0.015,0.287,0.022,0.277c0.008,0.01,0.016-0.086,0.022-0.277c0.088-0.024,0.172-0.043,0.26-0.068
				C273.902,137.273,275.047,121.695,273.643,113.338z"/>
			<path fill="#FFD56B" d="M280.129,114.458c6.929,1.642,14.462,4.331,21.334,8.719c2.509,15.544-4.62,26.28-12.1,33.026
				c-2.387-0.49-5.062-0.814-8.049-0.908C287.877,139.757,283.081,122.43,280.129,114.458z"/>
			<path fill="#F6BB42" d="M319.842,144.29c2.401,5.416,4.038,11.728,4.604,19.097c-5.013,2.375-11.438,5.273-17.411,7.539
				l0.466-3.363c0,0-1.088-2.209-3.995-4.753C310.069,158.45,316.593,152.479,319.842,144.29z"/>
			<path fill="#FFD56B" d="M324.005,180.072c-0.481,4.136-1.247,8.53-2.308,13.182l-9.293-0.328
				c-1.152-2.242-2.706-4.245-4.779-5.766L324.005,180.072z"/>
			<path fill="#F6BB42" d="M228.282,236.859c1.932-0.699,3.78-1.542,5.456-2.689c1.669-1.137,3.13-2.566,4.219-4.243
				c1.064-1.695,1.745-3.605,2.11-5.573c0.368-1.972,0.421-3.999,0.335-6.015c-0.089-2.019-0.342-4.033-0.68-6.035
				c-0.34-2.002-0.747-3.995-1.22-5.977c-0.936-3.965-2.032-7.899-3.192-11.818c-0.573-1.977-1.202-3.874-1.761-5.909l-0.406-1.481
				l-0.323-1.563c-0.244-1.045-0.331-2.097-0.471-3.148c-0.164-2.115-0.164-4.268,0.199-6.401c0.378-2.126,1.081-4.216,2.134-6.128
				c2.103-3.852,5.526-6.819,9.288-8.839c1.884-1.027,3.868-1.831,5.895-2.479c2.046-0.648,4.061-1.135,6.282-1.405l1.135-0.138
				l0.421,1.141c0.374,1.016,0.818,2.084,1.267,3.113c0.45,1.037,0.93,2.063,1.421,3.082c0.475,1.027,0.99,2.032,1.504,3.039
				c0.543,0.988,1.068,1.99,1.656,2.948c0.557,0.981,1.191,1.905,1.792,2.854c0.647,0.908,1.249,1.863,1.958,2.716
				c0.349,0.432,0.678,0.885,1.043,1.301l1.11,1.231c0.355,0.43,0.785,0.764,1.173,1.155c0.393,0.383,0.783,0.771,1.221,1.089
				l1.335,1.054l0.683,0.533c0.233,0.19,0.492,0.451,0.733,0.676c0.934,0.936,1.679,1.979,2.226,3.136
				c1.095,2.313,1.374,4.823,1.298,7.211c-0.092,2.401-0.56,4.735-1.255,6.974c-0.696,2.237-1.552,4.41-2.659,6.462l-0.271-0.129
				c0.413-1.068,0.742-2.175,1.067-3.271c0.316-1.101,0.589-2.212,0.808-3.329c0.42-2.235,0.692-4.492,0.619-6.71
				c-0.092-2.205-0.533-4.39-1.568-6.198c-0.516-0.892-1.169-1.718-1.901-2.377c-0.191-0.155-0.339-0.309-0.559-0.473l-0.709-0.497
				l-1.437-1.02c-0.515-0.339-0.966-0.741-1.422-1.14c-0.444-0.407-0.937-0.779-1.337-1.225l-1.255-1.296
				c-0.411-0.438-0.78-0.906-1.172-1.358c-0.797-0.897-1.467-1.876-2.189-2.823c-0.661-0.982-1.335-1.962-1.934-2.979
				c-0.631-1.001-1.191-2.037-1.771-3.064c-0.549-1.042-1.099-2.083-1.605-3.146c-0.508-1.061-0.976-2.14-1.428-3.226
				c-0.453-1.094-0.879-2.165-1.283-3.321l1.556,1.003c-1.848,0.202-3.853,0.598-5.725,1.14c-1.892,0.543-3.743,1.23-5.484,2.115
				c-3.479,1.747-6.587,4.277-8.498,7.613c-0.963,1.654-1.628,3.479-2.014,5.377c-0.37,1.906-0.418,3.877-0.314,5.844
				c0.11,0.981,0.166,1.978,0.37,2.936l0.261,1.453l0.371,1.491c0.479,1.929,1.09,3.938,1.611,5.909
				c1.068,3.965,2.098,7.947,2.925,11.985c0.416,2.018,0.767,4.053,1.049,6.1c0.279,2.048,0.474,4.113,0.501,6.191
				c0.023,2.075-0.096,4.17-0.544,6.218c-0.444,2.043-1.225,4.035-2.398,5.778c-1.198,1.728-2.77,3.165-4.52,4.278
				c-1.744,1.118-3.685,1.926-5.622,2.559L228.282,236.859z"/>
		</g>
	</g>
	<g id="avatar14_1_">
		<g id="back_16_">
		</g>
		<g id="hair_back">
		</g>
		<g id="clothes_17_">
		</g>
		<g id="face_57_">
		</g>
		<g id="hair_front">
		</g>
	</g>
	<g id="avatar13_1_">
		<g id="back_x27_">
		</g>
		<g id="clothes">
		</g>
		<g id="face">
		</g>
		<g id="hair">
		</g>
	</g>
	<g id="avatar12_1_">
		<g id="back_27_">
		</g>
		<g id="clothes_29_">
		</g>
		<g id="face_97_">
		</g>
		<g id="hair_20_">
		</g>
	</g>
	<g id="avatar11_1_">
		<g id="back_26_">
		</g>
		<g id="clothes_28_">
		</g>
		<g id="face_95_">
		</g>
		<g id="hair_19_">
		</g>
	</g>
	<g id="avatar10_1_">
		<g id="back_25_">
		</g>
		<g id="clothes_27_">
		</g>
		<g id="face_94_">
		</g>
		<g id="glasses_11_">
		</g>
		<g id="hair_18_">
		</g>
	</g>
	<g id="avatar9_1_">
		<g id="back_24_">
		</g>
		<g id="clothes_26_">
		</g>
		<g id="face_92_">
		</g>
		<g id="hair_17_">
		</g>
	</g>
	<g id="avatar8_1_">
		<g id="back_23_">
		</g>
		<g id="hair_back_7_">
		</g>
		<g id="clothes_25_">
		</g>
		<g id="face_91_">
		</g>
		<g id="hair_front_7_">
		</g>
	</g>
	<g id="avatar7_1_">
		<g id="back_22_">
		</g>
		<g id="clothes_24_">
		</g>
		<g id="face_90_">
		</g>
		<g id="necklace_1_">
		</g>
		<g id="earings_1_">
		</g>
		<g id="hair_16_">
		</g>
	</g>
	<g id="avatar6_1_">
		<g id="back_21_">
		</g>
		<g id="hair_back_6_">
		</g>
		<g id="clothes_23_">
		</g>
		<g id="face_89_">
		</g>
		<g id="glasses_12_">
		</g>
		<g id="hair_front_6_">
		</g>
	</g>
	<g id="avatar5_1_">
		<g id="back_20_">
		</g>
		<g id="hair_back_5_">
		</g>
		<g id="clothes_22_">
		</g>
		<g id="face_88_">
		</g>
		<g id="glasses_9_">
		</g>
		<g id="hair_front_5_">
		</g>
	</g>
	<g id="avatar4_1_">
		<g id="back_19_">
		</g>
		<g id="hair_back_4_">
		</g>
		<g id="clothes_21_">
		</g>
		<g id="face_87_">
		</g>
		<g id="earing_1_">
		</g>
		<g id="hair_front_4_">
		</g>
	</g>
	<g id="avatar3_1_">
		<g id="back_18_">
		</g>
		<g id="hair_back_3_">
		</g>
		<g id="clothes_20_">
		</g>
		<g id="face_86_">
		</g>
		<g id="earings">
		</g>
		<g id="glasses_8_">
		</g>
		<g id="hair_front_3_">
		</g>
	</g>
	<g id="avatar2_1_">
		<g id="Layebackr_167">
		</g>
		<g id="hair_back_2_">
		</g>
		<g id="clothes_19_">
		</g>
		<g id="necklace">
		</g>
		<g id="face_85_">
		</g>
		<g id="hair_front_2_">
		</g>
	</g>
	<g id="avatar1_1_">
		<g id="back_17_">
		</g>
		<g id="hair_back_1_">
		</g>
		<g id="clothes_18_">
		</g>
		<g id="face_84_">
		</g>
		<g id="hair_front_1_">
		</g>
	</g>
</g>
<g id="male" display="none">
	<g id="avatar20" display="inline">
		<g id="back_32_">
		</g>
		<g id="clothes_34_">
		</g>
		<g id="face_100_">
		</g>
		<g id="hair_22_">
		</g>
	</g>
	<g id="avatar19" display="inline">
		<g id="back_31_">
		</g>
		<g id="clothes_33_">
		</g>
		<g id="face_99_">
		</g>
		<g id="scaft">
		</g>
		<g id="hat">
		</g>
	</g>
	<g id="avatar18" display="inline">
		<g id="back_30_">
		</g>
		<g id="clothes_32_">
		</g>
		<g id="face_55_">
		</g>
		<g id="earings_2_">
		</g>
		<g id="hair_21_">
		</g>
	</g>
	<g id="avatar17" display="inline">
		<g id="back_29_">
		</g>
		<g id="hair_back_10_">
		</g>
		<g id="clothes_31_">
		</g>
		<g id="face_2_">
		</g>
		<g id="glasses_10_">
		</g>
		<g id="hair_front_10_">
		</g>
	</g>
	<g id="avatar16" display="inline">
		<g id="back_28_">
		</g>
		<g id="hair_back_9_">
		</g>
		<g id="clothes_1_">
		</g>
		<g id="face_1_">
		</g>
		<g id="hair_front_9_">
		</g>
	</g>
	<g id="avatar15" display="inline">
		<g id="back_5_">
		</g>
		<g id="clothes_6_">
		</g>
		<g id="face_29_">
		</g>
		<g id="glasses_4_">
		</g>
		<g id="hair_8_">
		</g>
	</g>
	<g id="avatar14" display="inline">
		<g id="back_6_">
		</g>
		<g id="clothes_7_">
		</g>
		<g id="face_42_">
		</g>
		<g id="earings_3_">
		</g>
		<g id="hair_9_">
		</g>
	</g>
	<g id="avatar13" display="inline">
		<g id="back_7_">
		</g>
		<g id="clothes_8_">
		</g>
		<g id="face_43_">
		</g>
		<g id="glasses_5_">
		</g>
		<g id="hair_10_">
		</g>
	</g>
	<g id="avatar12" display="inline">
		<g id="back_8_">
		</g>
		<g id="clothes_9_">
		</g>
		<g id="face_44_">
		</g>
		<g id="beard_6_">
		</g>
		<g id="hair_11_">
		</g>
	</g>
	<g id="avatar11" display="inline">
		<g id="back_9_">
		</g>
		<g id="clothes_10_">
		</g>
		<g id="face_45_">
		</g>
		<g id="glass">
		</g>
		<g id="hair_12_">
		</g>
	</g>
	<g id="avatar10" display="inline">
		<g id="back_10_">
		</g>
		<g id="clothes_11_">
		</g>
		<g id="face_46_">
		</g>
		<g id="beard_7_">
		</g>
		<g id="glasses_6_">
		</g>
		<g id="hair_13_">
		</g>
	</g>
	<g id="avatar9" display="inline">
		<g id="back_11_">
		</g>
		<g id="clothes_12_">
		</g>
		<g id="face_47_">
		</g>
		<g id="glasses_3_">
		</g>
		<g id="hair_7_">
		</g>
	</g>
	<g id="avatar8" display="inline">
		<g id="back_12_">
		</g>
		<g id="clothes_13_">
		</g>
		<g id="face_48_">
		</g>
		<g id="beard_5_">
		</g>
		<g id="glasses_7_">
		</g>
		<g id="hair_6_">
		</g>
	</g>
	<g id="avatar7" display="inline">
		<g id="back_4_">
		</g>
		<g id="clothes_14_">
		</g>
		<g id="face_11_">
		</g>
		<g id="hair_14_">
		</g>
	</g>
	<g id="avatar6" display="inline">
		<g id="back_13_">
		</g>
		<g id="clothes_15_">
		</g>
		<g id="face_16_">
		</g>
		<g id="glasses_2_">
		</g>
		<g id="beard_4_">
		</g>
		<g id="hair_5_">
		</g>
	</g>
	<g id="avatar5" display="inline">
		<g id="back_14_">
		</g>
		<g id="clothes_5_">
		</g>
		<g id="face_38_">
		</g>
		<g id="beard_3_">
		</g>
		<g id="hair_4_">
		</g>
	</g>
	<g id="avatar4" display="inline">
		<g id="back_3_">
		</g>
		<g id="clothes_4_">
		</g>
		<g id="face_13_">
		</g>
		<g id="beard_2_">
		</g>
		<g id="glasses_1_">
		</g>
		<g id="hair_3_">
		</g>
	</g>
	<g id="avatar3" display="inline">
		<g id="back_15_">
		</g>
		<g id="clothes_16_">
		</g>
		<g id="face_49_">
		</g>
		<g id="hair_15_">
		</g>
	</g>
	<g id="avatar2" display="inline">
		<g id="back_2_">
		</g>
		<g id="clothes_3_">
		</g>
		<g id="face_9_">
		</g>
		<g id="beard_1_">
		</g>
		<g id="hair_2_">
		</g>
	</g>
	<g id="avatar1" display="inline">
		<g id="back_1_">
		</g>
		<g id="clothes_2_">
		</g>
		<g id="face_6_">
		</g>
		<g id="hair_1_">
		</g>
	</g>
</g>
</svg>
